<?xml version="1.0" standalone="no"?>
<!DOCTYPE svg PUBLIC "-//W3C//DTD SVG 20010904//EN"
 "http://www.w3.org/TR/2001/REC-SVG-20010904/DTD/svg10.dtd">
<svg version="1.0" xmlns="http://www.w3.org/2000/svg"
 width="195.000000pt" height="216.000000pt" viewBox="0 0 195.000000 216.000000"
 preserveAspectRatio="xMidYMid meet">

<g transform="translate(0.000000,216.000000) scale(0.100000,-0.100000)"
fill="#000000" stroke="none">
<path d="M709 1961 c-536 -308 -583 -337 -604 -372 -18 -30 -20 -56 -23 -214
-2 -99 -1 -280 3 -402 l7 -223 114 0 113 0 3 345 3 345 25 25 c25 25 225 145
242 145 4 0 8 -167 8 -371 l0 -371 34 -34 c28 -28 42 -34 75 -34 23 0 56 7 72
16 58 29 59 41 59 513 l0 429 55 31 c30 17 66 31 80 31 31 0 576 -309 620
-352 l30 -28 3 -345 3 -345 113 0 114 0 7 223 c4 122 5 303 3 402 -3 158 -5
184 -23 214 -21 35 -68 64 -604 372 -189 109 -231 129 -266 129 -35 0 -77 -20
-266 -129z"/>
<path d="M1175 1350 c-11 -4 -31 -20 -45 -35 l-25 -27 -3 -269 -3 -269 121 0
120 0 0 260 c0 291 -3 305 -64 334 -37 17 -69 20 -101 6z"/>
</g>
</svg>
